:FULLY-SPECIFIED
:FORCE-ALL-JOINTS-BE-3DOF
:DEGREES
291
root 10.0277 16.829 3.9186 5.4088 1.25945 3.17627
lfemur -3.44918 5.335 -28.6975
ltibia 19.9182 -0 0
lfoot -17.6756 4.123 -0.109996
ltoes -5.65223 0 0
rfemur -36.2187 -0.284098 16.1804
rtibia 46.8119 -0 0
rfoot -19.8922 -11.471 0.119992
rtoes -23.6334 0 0
lowerback -5.43743 -3.43282 -4.44597
upperback -0.221365 -4.36768 2.1188
thorax 3.3176 -2.26146 4.30995
lowerneck -21.5668 -3.8315 -11.5922
upperneck 22.6685 -4.5623 11.3958
head 11.5076 -1.66152 5.46816
lclavicle 3.5334e-14 -1.90833e-14 0
lhumerus -13.4198 -19.7757 87.1414
lradius 26.9252 -0 0
lwrist 3.56774 0 0
lhand -15.4818 -24.5582 -0.00230809
lfingers 7.12502 -0 0
lthumb 10.6992 5.13489 -0.00561834
rclavicle 3.5334e-14 -1.90833e-14 0
rhumerus -47.261 7.46711 -82.8605
rradius 40.2059 -0 0
rwrist -22.5503 0 0
rhand -29.6042 -21.6252 -0.00312616
rfingers 7.12502 -0 0
rthumb -2.93517 -51.5845 -0.00303221
292
root 10.0172 16.8162 4.08304 5.44694 1.47044 3.1622
lfemur -2.64182 5.41462 -28.4374
ltibia 19.394 -0 0
lfoot -17.1579 3.91114 -0.14284
ltoes -5.9078 0 0
rfemur -36.3909 -0.244145 16.1972
rtibia 46.6425 -0 0
rfoot -19.5166 -11.1518 0.155812
rtoes -23.516 0 0
lowerback -5.50257 -3.46523 -4.4622
upperback -0.251811 -4.40761 2.12342
thorax 3.32862 -2.28103 4.31618
lowerneck -21.4946 -3.85929 -11.6326
upperneck 22.6178 -4.60681 11.4499
head 11.4842 -1.68059 5.48686
lclavicle 3.5334e-14 -1.90833e-14 0
lhumerus -13.6765 -20.2553 87.4513
lradius 27.2357 -0 0
lwrist 3.68238 0 0
lhand -15.2563 -24.5685 -0.0029966
lfingers 7.12502 -0 0
lthumb 10.9165 5.10893 -0.00729428
rclavicle 3.5334e-14 -1.90833e-14 0
rhumerus -47.3356 7.42861 -82.8586
rradius 39.9348 -0 0
rwrist -22.352 0 0
rhand -29.568 -21.712 -0.00405855
rfingers 7.12502 -0 0
rthumb -2.90021 -51.6716 -0.00393659
293
root 10.0068 16.8034 4.24747 5.48503 1.68145 3.14827
lfemur -1.83399 5.49058 -28.1763
ltibia 18.8699 -0 0
lfoot -16.6401 3.699 -0.173769
ltoes -6.16337 0 0
rfemur -36.5631 -0.204142 16.2139
rtibia 46.4731 -0 0
rfoot -19.1409 -10.8324 0.189539
rtoes -23.3986 0 0
lowerback -5.56769 -3.49766 -4.47839
upperback -0.282262 -4.44755 2.12806
thorax 3.33964 -2.30059 4.3224
lowerneck -21.4223 -3.88702 -11.6731
upperneck 22.5671 -4.65127 11.504
head 11.4609 -1.69965 5.50556
lclavicle 3.5334e-14 -1.90833e-14 0
lhumerus -13.9367 -20.7335 87.7644
lradius 27.5462 -0 0
lwrist 3.79702 0 0
lhand -15.0307 -24.5788 -0.00364467
lfingers 7.12502 -0 0
lthumb 11.1338 5.08296 -0.00887177
rclavicle 3.5334e-14 -1.90833e-14 0
rhumerus -47.4102 7.39012 -82.8566
rradius 39.6638 -0 0
rwrist -22.1536 0 0
rhand -29.5318 -21.7988 -0.00493611
rfingers 7.12502 -0 0
rthumb -2.86525 -51.7588 -0.00478778
294
root 9.99627 16.7906 4.4119 5.52307 1.89247 3.13447
lfemur -1.02573 5.56288 -27.914
ltibia 18.3457 -0 0
lfoot -16.1222 3.48658 -0.202779
ltoes -6.41894 0 0
rfemur -36.7353 -0.16409 16.2304
rtibia 46.3038 -0 0
rfoot -18.765 -10.5128 0.22117
rtoes -23.2812 0 0
lowerback -5.63281 -3.53011 -4.49455
upperback -0.312718 -4.48748 2.13273
thorax 3.35065 -2.32016 4.32862
lowerneck -21.35 -3.91471 -11.7137
upperneck 22.5164 -4.69568 11.5582
head 11.4375 -1.71871 5.52427
lclavicle 3.5334e-14 -1.90833e-14 0
lhumerus -14.2005 -21.2104 88.0808
lradius 27.8567 -0 0
lwrist 3.91167 0 0
lhand -14.8052 -24.589 -0.00425228
lfingers 7.12502 -0 0
lthumb 11.3511 5.05699 -0.0103508
rclavicle 3.5334e-14 -1.90833e-14 0
rhumerus -47.4848 7.35163 -82.8546
rradius 39.3928 -0 0
rwrist -21.9552 0 0
rhand -29.4956 -21.8856 -0.00575884
rfingers 7.12502 -0 0
rthumb -2.83028 -51.8459 -0.00558578
295
root 9.98578 16.7777 4.57634 5.56107 2.1035 3.12081
lfemur -0.217049 5.63148 -27.6508
ltibia 17.8216 -0 0
lfoot -15.6042 3.27391 -0.229868
ltoes -6.6745 0 0
rfemur -36.9075 -0.123988 16.2468
rtibia 46.1344 -0 0
rfoot -18.3888 -10.1931 0.250703
rtoes -23.1638 0 0
lowerback -5.69792 -3.56257 -4.51067
upperback -0.343179 -4.52741 2.13742
thorax 3.36166 -2.33973 4.33484
lowerneck -21.2777 -3.94234 -11.7543
upperneck 22.4656 -4.74005 11.6124
head 11.4141 -1.73775 5.54299
lclavicle 3.5334e-14 -1.90833e-14 0
lhumerus -14.468 -21.6858 88.4007
lradius 28.1672 -0 0
lwrist 4.02631 0 0
lhand -14.5796 -24.5993 -0.00481943
lfingers 7.12502 -0 0
lthumb 11.5684 5.03102 -0.0117313
rclavicle 3.5334e-14 -1.90833e-14 0
rhumerus -47.5594 7.31314 -82.8525
rradius 39.1217 -0 0
rwrist -21.7569 0 0
rhand -29.4594 -21.9723 -0.00652672
rfingers 7.12502 -0 0
rthumb -2.79532 -51.9331 -0.00633059
296
root 9.97529 16.7649 4.74077 5.59902 2.31453 3.1073
lfemur 0.592036 5.69637 -27.3865
ltibia 17.2974 -0 0
lfoot -15.0861 3.061 -0.255032
ltoes -6.93007 0 0
rfemur -37.0796 -0.0838366 16.2631
rtibia 45.965 -0 0
rfoot -18.0126 -9.87307 0.278136
rtoes -23.0464 0 0
lowerback -5.76302 -3.59506 -4.52675
upperback -0.373644 -4.56734 2.14212
thorax 3.37267 -2.3593 4.34105
lowerneck -21.2054 -3.96993 -11.7949
upperneck 22.4147 -4.78437 11.6666
head 11.3907 -1.75679 5.56172
lclavicle 3.5334e-14 -1.90833e-14 0
lhumerus -14.7393 -22.1599 88.724
lradius 28.4776 -0 0
lwrist 4.14095 0 0
lhand -14.3541 -24.6096 -0.0053461
lfingers 7.12502 -0 0
lthumb 11.7856 5.00503 -0.0130133
rclavicle 3.5334e-14 -1.90833e-14 0
rhumerus -47.634 7.27466 -82.8504
rradius 38.8507 -0 0
rwrist -21.5585 0 0
rhand -29.4232 -22.0591 -0.00723977
rfingers 7.12502 -0 0
rthumb -2.76035 -52.0203 -0.0070222
297
root 9.9648 16.7521 4.90521 5.63693 2.52558 3.09392
lfemur 1.4015 5.75755 -27.1214
ltibia 16.7732 -0 0
lfoot -14.5679 2.84788 -0.27827
ltoes -7.18564 0 0
rfemur -37.2518 -0.0436366 16.2793
rtibia 45.7957 -0 0
rfoot -17.6362 -9.55292 0.303466
rtoes -22.929 0 0
lowerback -5.82812 -3.62756 -4.5428
upperback -0.404115 -4.60726 2.14685
thorax 3.38368 -2.37887 4.34727
lowerneck -21.133 -3.99746 -11.8355
upperneck 22.3638 -4.82864 11.7209
head 11.3673 -1.77582 5.58045
lclavicle 3.5334e-14 -1.90833e-14 0
lhumerus -15.0144 -22.6326 89.0508
lradius 28.7881 -0 0
lwrist 4.25559 0 0
lhand -14.1286 -24.6199 -0.00583229
lfingers 7.12502 -0 0
lthumb 12.0029 4.97905 -0.0141967
rclavicle 3.5334e-14 -1.90833e-14 0
rhumerus -47.7086 7.23617 -82.8483
rradius 38.5796 -0 0
rwrist -21.3602 0 0
rhand -29.387 -22.1459 -0.00789797
rfingers 7.12502 -0 0
rthumb -2.72538 -52.1074 -0.00766063
298
root 9.95431 16.7393 5.06964 5.6748 2.73663 3.08067
lfemur 2.21133 5.81499 -26.8553
ltibia 16.2491 -0 0
lfoot -14.0496 2.63455 -0.29958
ltoes -7.44121 0 0
rfemur -37.4239 -0.00338824 16.2953
rtibia 45.6263 -0 0
rfoot -17.2596 -9.2326 0.326693
rtoes -22.8116 0 0
lowerback -5.8932 -3.66008 -4.55881
upperback -0.434591 -4.64718 2.15161
thorax 3.39469 -2.39844 4.35347
lowerneck -21.0607 -4.02494 -11.8762
upperneck 22.3129 -4.87286 11.7752
head 11.3439 -1.79485 5.5992
lclavicle 3.5334e-14 -1.90833e-14 0
lhumerus -15.2934 -23.1038 89.3812
lradius 29.0986 -0 0
lwrist 4.37023 0 0
lhand -13.903 -24.6302 -0.00627799
lfingers 7.12502 -0 0
lthumb 12.2202 4.95305 -0.0152816
rclavicle 3.5334e-14 -1.90833e-14 0
rhumerus -47.7831 7.19769 -82.846
rradius 38.3086 -0 0
rwrist -21.1618 0 0
rhand -29.3507 -22.2327 -0.00850133
rfingers 7.12502 -0 0
rthumb -2.69041 -52.1946 -0.00824585
299
root 9.94382 16.7264 5.23408 5.71262 2.94769 3.06757
lfemur 3.0215 5.86869 -26.5885
ltibia 15.7249 -0 0
lfoot -13.5312 2.42104 -0.318959
ltoes -7.69677 0 0
rfemur -37.5961 0.0369082 16.3113
rtibia 45.4569 -0 0
rfoot -16.8829 -8.91214 0.347813
rtoes -22.6942 0 0
lowerback -5.95829 -3.69262 -4.57478
upperback -0.465072 -4.6871 2.15638
thorax 3.40569 -2.41802 4.35967
lowerneck -20.9883 -4.05237 -11.9169
upperneck 22.2619 -4.91703 11.8296
head 11.3205 -1.81386 5.61795
lclavicle 3.5334e-14 -1.90833e-14 0
lhumerus -15.5763 -23.5735 89.7153
lradius 29.4091 -0 0
lwrist 4.48487 0 0
lhand -13.6775 -24.6405 -0.00668319
lfingers 7.12502 -0 0
lthumb 12.4375 4.92706 -0.0162679
rclavicle 3.5334e-14 -1.90833e-14 0
rhumerus -47.8577 7.15922 -82.8438
rradius 38.0376 -0 0
rwrist -20.9635 0 0
rhand -29.3145 -22.3195 -0.00904985
rfingers 7.12502 -0 0
rthumb -2.65544 -52.2818 -0.00877789
300
root 9.93333 16.7136 5.39851 5.75041 3.15876 3.0546
lfemur 3.83198 5.91862 -26.3208
ltibia 15.2007 -0 0
lfoot -13.0128 2.20736 -0.336405
ltoes -7.95234 0 0
rfemur -37.7682 0.0772523 16.3271
rtibia 45.2876 -0 0
rfoot -16.5061 -8.59155 0.366826
rtoes -22.5768 0 0
lowerback -6.02336 -3.72518 -4.59072
upperback -0.495558 -4.72702 2.16117
thorax 3.41669 -2.43759 4.36587
lowerneck -20.9159 -4.07975 -11.9577
upperneck 22.2109 -4.96115 11.884
head 11.297 -1.83287 5.63671
lclavicle 3.5334e-14 -1.90833e-14 0
lhumerus -15.8633 -24.0416 90.0532
lradius 29.7196 -0 0
lwrist 4.59951 0 0
lhand -13.452 -24.6507 -0.0070479
lfingers 7.12502 -0 0
lthumb 12.6548 4.90106 -0.0171556
rclavicle 3.5334e-14 -1.90833e-14 0
rhumerus -47.9323 7.12074 -82.8415
rradius 37.7665 -0 0
rwrist -20.7651 0 0
rhand -29.2783 -22.4062 -0.00954351
rfingers 7.12502 -0 0
rthumb -2.62047 -52.3689 -0.00925672
301
root 9.92284 16.7008 5.56294 5.78815 3.36984 3.04177
lfemur 4.64277 5.96478 -26.0525
ltibia 14.6766 -0 0
lfoot -12.4943 1.99353 -0.351917
ltoes -8.20791 0 0
rfemur -37.9403 0.117644 16.3428
rtibia 45.1182 -0 0
rfoot -16.1293 -8.27084 0.383729
rtoes -22.4594 0 0
lowerback -6.08843 -3.75775 -4.60662
upperback -0.526049 -4.76693 2.16599
thorax 3.42769 -2.45717 4.37207
lowerneck -20.8434 -4.10707 -11.9985
upperneck 22.1598 -5.00523 11.9384
head 11.2736 -1.85187 5.65548
lclavicle 3.5334e-14 -1.90833e-14 0
lhumerus -16.1543 -24.5082 90.3948
lradius 30.03 -0 0
lwrist 4.71415 0 0
lhand -13.2264 -24.661 -0.00737209
lfingers 7.12502 -0 0
lthumb 12.8721 4.87506 -0.0179447
rclavicle 3.5334e-14 -1.90833e-14 0
rhumerus -48.0068 7.08227 -82.8391
rradius 37.4955 -0 0
rwrist -20.5667 0 0
rhand -29.2421 -22.493 -0.00998233
rfingers 7.12502 -0 0
rthumb -2.5855 -52.4561 -0.00968235
